<svg width="190" height="37" viewBox="0 0 190 37" fill="none" xmlns="http://www.w3.org/2000/svg">
<path d="M20.7248 20.4471C21.2452 19.9264 22.087 19.9264 22.6074 20.4471C23.1278 20.9678 23.1278 21.8101 22.6074 22.3309L9.87823 35.07C8.89204 36.0568 7.55328 36.6109 6.15859 36.6109C4.76407 36.6108 3.42721 36.0567 2.44112 35.07C1.45504 34.0833 0.901337 32.7457 0.901216 31.3503C0.901216 29.9547 1.45493 28.6152 2.44112 27.6284L15.1725 14.8914C15.6929 14.3706 16.5347 14.3706 17.0551 14.8914C17.5755 15.4121 17.5755 16.2544 17.0551 16.7751L4.32589 29.5143C3.8395 30.001 3.56461 30.662 3.56461 31.3503C3.56473 32.0384 3.83961 32.6975 4.32589 33.1841C4.81217 33.6707 5.47091 33.9457 6.15859 33.9459C6.84644 33.9459 7.50709 33.6708 7.99347 33.1841L20.7248 20.4471Z" fill="url(#paint0_linear_25_276)"/>
<path d="M23.5335 21.3716C24.0536 21.8924 24.0538 22.7369 23.5335 23.2575C23.0133 23.7781 22.1692 23.7779 21.6488 23.2575L23.5335 21.3716ZM14.2464 13.9647C14.7668 13.444 15.6086 13.444 16.129 13.9647L23.5335 21.3716L22.5901 22.3135L21.6488 23.2575L14.2464 15.8484C13.726 15.3277 13.726 14.4854 14.2464 13.9647Z" fill="url(#paint1_linear_25_276)"/>
<path d="M7.4686 0.611328C9.20996 0.611564 10.8808 1.3021 12.1122 2.53414L19.8312 10.2601C20.3516 10.7808 20.3516 11.6253 19.8312 12.146C19.376 12.6013 18.6739 12.6589 18.1569 12.3175L17.9487 12.146L10.2274 4.42006C9.49584 3.68813 8.50313 3.27659 7.4686 3.27635C6.43366 3.27635 5.43942 3.6878 4.70761 4.42006C3.18376 5.94485 3.18389 8.41839 4.70761 9.94326L8.72655 13.9647C9.24695 14.4854 9.24695 15.3299 8.72655 15.8506C8.20633 16.3703 7.36417 16.3704 6.84396 15.8506L2.82285 11.8292C0.258335 9.26287 0.258203 5.10037 2.82285 2.53414C4.05447 1.30176 5.72683 0.611328 7.4686 0.611328Z" fill="url(#paint2_linear_25_276)"/>
<path d="M12.3963 4.70653C12.9167 4.18581 13.7607 4.18581 14.2811 4.70653C14.8005 5.22706 14.8005 6.06974 14.2811 6.59028L6.8765 13.9994C6.35628 14.5191 5.51412 14.5191 4.9939 13.9994C4.4735 13.4787 4.4735 12.6342 4.9939 12.1135L12.3963 4.70653Z" fill="url(#paint3_linear_25_276)"/>
<path d="M32.589 0.739009C33.2992 0.502246 34.0728 0.635056 34.6603 1.07756L34.901 1.2859L36.2067 2.59237C36.8108 3.19724 37.021 4.09226 36.7511 4.90366L35.2415 9.44375C34.8087 10.7451 33.591 11.6226 32.2203 11.6226H29.0559C27.2983 11.6223 25.8745 10.1976 25.8741 8.43894V5.27476C25.8742 3.90378 26.7497 2.68525 28.0495 2.25165L32.589 0.739009ZM28.5375 8.43894C28.5379 8.72475 28.7702 8.95723 29.0559 8.95762H32.2203C32.4434 8.95762 32.6422 8.81355 32.7126 8.60171L34.1419 4.29816L33.1919 3.34761L28.8932 4.78212C28.6816 4.85269 28.5375 5.05156 28.5375 5.27476V8.43894Z" fill="url(#paint4_linear_25_276)"/>
<path d="M26.8042 8.80571C27.3246 8.28499 28.1686 8.28499 28.689 8.80571C29.2092 9.32639 29.2092 10.1688 28.689 10.6895L19.8312 19.5526C19.3109 20.0732 18.469 20.0732 17.9487 19.5526C17.4283 19.0319 17.4283 18.1874 17.9487 17.6667L26.8042 8.80571Z" fill="url(#paint5_linear_25_276)"/>
<path d="M34.1003 24.5358C34.8031 25.239 35.2827 26.1367 35.4776 27.1118L36.8353 33.909C36.9833 34.6494 36.7526 35.4149 36.2193 35.949C35.6855 36.4831 34.9187 36.7156 34.1784 36.5675L27.3855 35.2068C26.4111 35.0118 25.5159 34.5338 24.8132 33.8308L21.6509 30.6645C21.1306 30.1438 21.1305 29.3015 21.6509 28.7807C22.1063 28.3251 22.8081 28.2675 23.3253 28.6093L23.5335 28.7807L26.6979 31.9449C27.0286 32.2756 27.4498 32.5021 27.9082 32.5938L34.1003 33.8308L32.8641 27.6349C32.7724 27.176 32.5463 26.7526 32.2156 26.4217L25.3511 19.553L26.2945 18.6111L27.2358 17.6692L34.1003 24.5358ZM25.3511 17.6692C25.8715 17.1485 26.7154 17.1485 27.2358 17.6692L25.3511 19.553C24.8316 19.0324 24.8316 18.1898 25.3511 17.6692Z" fill="url(#paint6_linear_25_276)"/>
<path d="M189.34 27.7681C188.185 27.7503 187.243 27.6258 186.515 27.3947C185.804 27.1636 185.235 26.8436 184.809 26.4347C184.4 26.008 184.116 25.5013 183.956 24.9146C183.814 24.3102 183.743 23.6346 183.743 22.8879V7.44732L187.714 6.8073V22.0878C187.714 22.4434 187.741 22.7634 187.794 23.0479C187.847 23.3323 187.945 23.5723 188.087 23.7679C188.247 23.9635 188.469 24.1235 188.753 24.2479C189.038 24.3724 189.42 24.4524 189.899 24.4879L189.34 27.7681Z" fill="url(#paint7_linear_25_276)"/>
<path d="M180.667 20.459C180.667 21.5613 180.507 22.5747 180.188 23.4991C179.868 24.4058 179.406 25.1881 178.802 25.8459C178.198 26.4859 177.469 26.9837 176.616 27.3393C175.781 27.6948 174.84 27.8726 173.791 27.8726C172.761 27.8726 171.819 27.6948 170.966 27.3393C170.131 26.9837 169.412 26.4859 168.807 25.8459C168.203 25.1881 167.733 24.4058 167.395 23.4991C167.057 22.5747 166.889 21.5613 166.889 20.459C166.889 19.3568 167.057 18.3523 167.395 17.4456C167.75 16.5389 168.23 15.7655 168.834 15.1255C169.456 14.4855 170.184 13.9877 171.02 13.6321C171.872 13.2765 172.796 13.0988 173.791 13.0988C174.804 13.0988 175.728 13.2765 176.563 13.6321C177.416 13.9877 178.144 14.4855 178.748 15.1255C179.352 15.7655 179.823 16.5389 180.161 17.4456C180.498 18.3523 180.667 19.3568 180.667 20.459ZM176.616 20.459C176.616 19.2323 176.368 18.2723 175.87 17.5789C175.39 16.8678 174.697 16.5122 173.791 16.5122C172.885 16.5122 172.183 16.8678 171.686 17.5789C171.188 18.2723 170.94 19.2323 170.94 20.459C170.94 21.6857 171.188 22.6635 171.686 23.3925C172.183 24.1036 172.885 24.4592 173.791 24.4592C174.697 24.4592 175.39 24.1036 175.87 23.3925C176.368 22.6635 176.616 21.6857 176.616 20.459Z" fill="url(#paint8_linear_25_276)"/>
<path d="M164.479 20.459C164.479 21.5613 164.319 22.5747 163.999 23.4991C163.679 24.4058 163.217 25.1881 162.613 25.8459C162.009 26.4859 161.281 26.9837 160.428 27.3393C159.593 27.6948 158.651 27.8726 157.603 27.8726C156.572 27.8726 155.63 27.6948 154.778 27.3393C153.943 26.9837 153.223 26.4859 152.619 25.8459C152.015 25.1881 151.544 24.4058 151.206 23.4991C150.869 22.5747 150.7 21.5613 150.7 20.459C150.7 19.3568 150.869 18.3523 151.206 17.4456C151.562 16.5389 152.041 15.7655 152.646 15.1255C153.267 14.4855 153.996 13.9877 154.831 13.6321C155.684 13.2765 156.608 13.0988 157.603 13.0988C158.615 13.0988 159.539 13.2765 160.374 13.6321C161.227 13.9877 161.956 14.4855 162.56 15.1255C163.164 15.7655 163.635 16.5389 163.972 17.4456C164.31 18.3523 164.479 19.3568 164.479 20.459ZM160.428 20.459C160.428 19.2323 160.179 18.2723 159.681 17.5789C159.202 16.8678 158.509 16.5122 157.603 16.5122C156.697 16.5122 155.995 16.8678 155.497 17.5789C155 18.2723 154.751 19.2323 154.751 20.459C154.751 21.6857 155 22.6635 155.497 23.3925C155.995 24.1036 156.697 24.4592 157.603 24.4592C158.509 24.4592 159.202 24.1036 159.681 23.3925C160.179 22.6635 160.428 21.6857 160.428 20.459Z" fill="url(#paint9_linear_25_276)"/>
<path d="M150.965 9.01875V12.5655H145.395V27.4994H141.238V12.5655H135.667V9.01875H150.965Z" fill="url(#paint10_linear_25_276)"/>
<path d="M121.305 13.953C121.98 13.7575 122.851 13.5797 123.917 13.4197C124.983 13.2419 126.102 13.153 127.275 13.153C128.465 13.153 129.451 13.313 130.233 13.633C131.033 13.9353 131.664 14.3708 132.126 14.9397C132.587 15.5087 132.916 16.1842 133.112 16.9665C133.307 17.7487 133.405 18.6199 133.405 19.5799V27.5002H129.434V20.0599C129.434 18.7799 129.265 17.8732 128.927 17.3398C128.59 16.8065 127.959 16.5398 127.035 16.5398C126.751 16.5398 126.449 16.5576 126.129 16.5931C125.809 16.6109 125.525 16.6376 125.276 16.6731V27.5002H121.305V13.953Z" fill="url(#paint11_linear_25_276)"/>
<path d="M108.866 20.0333C108.866 22.2556 109.763 23.3667 111.558 23.3667C111.966 23.3667 112.348 23.3134 112.704 23.2067C113.059 23.1 113.361 22.9756 113.61 22.8334V16.4865C113.415 16.4509 113.184 16.4242 112.917 16.4065C112.651 16.3709 112.34 16.3531 111.984 16.3531C110.936 16.3531 110.154 16.6998 109.639 17.3932C109.124 18.0865 108.866 18.9666 108.866 20.0333ZM117.581 25.7401C117.581 28.0335 116.995 29.7314 115.822 30.8336C114.667 31.9537 112.873 32.5137 110.438 32.5137C109.586 32.5137 108.733 32.4337 107.88 32.2737C107.027 32.1315 106.236 31.9359 105.508 31.687L106.201 28.3536C106.823 28.6025 107.471 28.798 108.146 28.9402C108.839 29.0825 109.621 29.1536 110.492 29.1536C111.629 29.1536 112.428 28.9047 112.89 28.4069C113.37 27.9091 113.61 27.2691 113.61 26.4868V25.9801C113.184 26.1757 112.739 26.3268 112.277 26.4335C111.833 26.5224 111.345 26.5668 110.812 26.5668C108.875 26.5668 107.391 25.9979 106.361 24.8601C105.33 23.7045 104.815 22.0956 104.815 20.0333C104.815 19.0021 104.975 18.0687 105.295 17.2332C105.615 16.3798 106.077 15.6509 106.681 15.0464C107.303 14.4419 108.058 13.9797 108.946 13.6597C109.834 13.3219 110.838 13.153 111.958 13.153C112.437 13.153 112.926 13.1797 113.423 13.233C113.939 13.2686 114.445 13.3219 114.943 13.393C115.44 13.4641 115.911 13.553 116.355 13.6597C116.817 13.7486 117.226 13.8464 117.581 13.953V25.7401Z" fill="url(#paint12_linear_25_276)"/>
<path d="M101.749 27.4995H97.7777V13.4723H101.749V27.4995ZM102.122 9.41882C102.122 10.1477 101.882 10.7255 101.402 11.1522C100.94 11.5611 100.39 11.7656 99.7499 11.7656C99.1103 11.7656 98.5506 11.5611 98.0709 11.1522C97.6089 10.7255 97.3779 10.1477 97.3779 9.41882C97.3779 8.6899 97.6089 8.12099 98.0709 7.71209C98.5506 7.28541 99.1103 7.07206 99.7499 7.07206C100.39 7.07206 100.94 7.28541 101.402 7.71209C101.882 8.12099 102.122 8.6899 102.122 9.41882Z" fill="url(#paint13_linear_25_276)"/>
<path d="M88.866 24.6458C89.5944 24.6458 90.1097 24.5747 90.4117 24.4325C90.7138 24.2903 90.8648 24.0147 90.8648 23.6058C90.8648 23.2858 90.6694 23.0102 90.2785 22.7791C89.8876 22.5302 89.2924 22.2546 88.4929 21.9524C87.871 21.7213 87.3024 21.4813 86.7872 21.2324C86.2897 20.9835 85.8633 20.6901 85.5079 20.3524C85.1526 19.9968 84.8772 19.579 84.6817 19.099C84.4863 18.619 84.3886 18.0412 84.3886 17.3656C84.3886 16.05 84.8772 15.0099 85.8544 14.2455C86.8316 13.481 88.173 13.0988 89.8787 13.0988C90.7316 13.0988 91.5489 13.1788 92.3306 13.3388C93.1124 13.481 93.7343 13.641 94.1962 13.8188L93.5033 16.9122C93.0413 16.7522 92.535 16.61 91.9842 16.4855C91.4511 16.3611 90.847 16.2989 90.1719 16.2989C88.9282 16.2989 88.3063 16.6456 88.3063 17.3389C88.3063 17.4989 88.333 17.6411 88.3863 17.7656C88.4396 17.89 88.5462 18.0145 88.7061 18.1389C88.866 18.2456 89.0792 18.3701 89.3457 18.5123C89.63 18.6367 89.9853 18.779 90.4117 18.939C91.2824 19.259 92.0019 19.579 92.5705 19.899C93.1391 20.2012 93.5832 20.539 93.9031 20.9124C94.2406 21.2679 94.4716 21.668 94.596 22.1124C94.7381 22.5569 94.8092 23.0725 94.8092 23.6591C94.8092 25.0459 94.2851 26.0948 93.2368 26.8059C92.2063 27.5171 90.7404 27.8726 88.8393 27.8726C87.5956 27.8726 86.5562 27.766 85.7211 27.5526C84.9038 27.3393 84.3353 27.1615 84.0154 27.0193L84.6817 23.7925C85.3569 24.0592 86.0498 24.2725 86.7605 24.4325C87.4712 24.5747 88.173 24.6458 88.866 24.6458Z" fill="url(#paint14_linear_25_276)"/>
<path d="M68.612 20.5924C68.612 19.3479 68.7986 18.2634 69.1717 17.3389C69.5626 16.3967 70.069 15.6144 70.6908 14.9922C71.3127 14.3699 72.0234 13.8988 72.8229 13.5788C73.6402 13.2588 74.4753 13.0988 75.3281 13.0988C77.3181 13.0988 78.8905 13.7121 80.0454 14.9388C81.2003 16.1478 81.7777 17.9345 81.7777 20.299C81.7777 20.5301 81.7689 20.7879 81.7511 21.0724C81.7333 21.3391 81.7156 21.5791 81.6978 21.7924H72.6897C72.7785 22.6102 73.1605 23.2591 73.8357 23.7391C74.5108 24.2192 75.417 24.4592 76.5541 24.4592C77.2826 24.4592 77.9933 24.3969 78.6862 24.2725C79.3969 24.1303 79.9743 23.9614 80.4185 23.7658L80.9516 26.9926C80.7383 27.0993 80.4541 27.2059 80.0987 27.3126C79.7434 27.4193 79.3436 27.5082 78.8994 27.5793C78.473 27.6682 78.011 27.7393 77.5135 27.7926C77.016 27.846 76.5186 27.8726 76.0211 27.8726C74.7596 27.8726 73.658 27.686 72.7163 27.3126C71.7924 26.9393 71.0195 26.4326 70.3977 25.7925C69.7936 25.1347 69.3405 24.3614 69.0384 23.4725C68.7542 22.5835 68.612 21.6235 68.612 20.5924ZM77.94 19.0723C77.9222 18.7345 77.86 18.4056 77.7534 18.0856C77.6646 17.7656 77.5135 17.4811 77.3003 17.2322C77.1049 16.9833 76.8473 16.7789 76.5274 16.6189C76.2254 16.4589 75.8434 16.3789 75.3814 16.3789C74.9373 16.3789 74.5553 16.4589 74.2354 16.6189C73.9156 16.7611 73.6491 16.9567 73.4359 17.2056C73.2227 17.4545 73.0539 17.7478 72.9295 18.0856C72.8229 18.4056 72.743 18.7345 72.6897 19.0723H77.94Z" fill="url(#paint15_linear_25_276)"/>
<path d="M54.0521 24.1133C54.2476 24.1311 54.4697 24.1488 54.7184 24.1666C54.9849 24.1666 55.2959 24.1666 55.6512 24.1666C57.73 24.1666 59.2669 23.6422 60.2619 22.5932C61.2746 21.5443 61.781 20.0954 61.781 18.2464C61.781 16.3086 61.3013 14.8418 60.3418 13.8463C59.3824 12.8507 57.8633 12.3529 55.7845 12.3529C55.5002 12.3529 55.207 12.3618 54.905 12.3795C54.6029 12.3795 54.3186 12.3973 54.0521 12.4329V24.1133ZM66.0719 18.2464C66.0719 19.8465 65.8231 21.2421 65.3256 22.4332C64.8281 23.6244 64.1174 24.6111 63.1935 25.3933C62.2874 26.1756 61.1769 26.7623 59.8621 27.1534C58.5473 27.5445 57.0726 27.7401 55.438 27.7401C54.6918 27.7401 53.8212 27.7045 52.8262 27.6334C51.8312 27.5801 50.854 27.4556 49.8945 27.2601V9.25942C50.854 9.08163 51.849 8.96607 52.8795 8.91274C53.9278 8.84162 54.825 8.80607 55.5713 8.80607C57.1526 8.80607 58.5829 8.98385 59.8621 9.33942C61.1591 9.69499 62.2696 10.255 63.1935 11.0195C64.1174 11.784 64.8281 12.7618 65.3256 13.9529C65.8231 15.1441 66.0719 16.5752 66.0719 18.2464Z" fill="url(#paint16_linear_25_276)"/>
<defs>
<linearGradient id="paint0_linear_25_276" x1="0.899414" y1="36.6113" x2="189.904" y2="9.01641" gradientUnits="userSpaceOnUse">
<stop stop-color="#AB68FF"/>
<stop offset="1" stop-color="#6DD6FF"/>
</linearGradient>
<linearGradient id="paint1_linear_25_276" x1="0.899414" y1="36.6113" x2="189.904" y2="9.01641" gradientUnits="userSpaceOnUse">
<stop stop-color="#AB68FF"/>
<stop offset="1" stop-color="#6DD6FF"/>
</linearGradient>
<linearGradient id="paint2_linear_25_276" x1="0.899414" y1="36.6113" x2="189.904" y2="9.01641" gradientUnits="userSpaceOnUse">
<stop stop-color="#AB68FF"/>
<stop offset="1" stop-color="#6DD6FF"/>
</linearGradient>
<linearGradient id="paint3_linear_25_276" x1="0.899414" y1="36.6113" x2="189.904" y2="9.01641" gradientUnits="userSpaceOnUse">
<stop stop-color="#AB68FF"/>
<stop offset="1" stop-color="#6DD6FF"/>
</linearGradient>
<linearGradient id="paint4_linear_25_276" x1="0.899414" y1="36.6113" x2="189.904" y2="9.01641" gradientUnits="userSpaceOnUse">
<stop stop-color="#AB68FF"/>
<stop offset="1" stop-color="#6DD6FF"/>
</linearGradient>
<linearGradient id="paint5_linear_25_276" x1="0.899414" y1="36.6113" x2="189.904" y2="9.01641" gradientUnits="userSpaceOnUse">
<stop stop-color="#AB68FF"/>
<stop offset="1" stop-color="#6DD6FF"/>
</linearGradient>
<linearGradient id="paint6_linear_25_276" x1="0.899414" y1="36.6113" x2="189.904" y2="9.01641" gradientUnits="userSpaceOnUse">
<stop stop-color="#AB68FF"/>
<stop offset="1" stop-color="#6DD6FF"/>
</linearGradient>
<linearGradient id="paint7_linear_25_276" x1="0.899414" y1="36.6113" x2="189.904" y2="9.01641" gradientUnits="userSpaceOnUse">
<stop stop-color="#AB68FF"/>
<stop offset="1" stop-color="#6DD6FF"/>
</linearGradient>
<linearGradient id="paint8_linear_25_276" x1="0.899414" y1="36.6113" x2="189.904" y2="9.01641" gradientUnits="userSpaceOnUse">
<stop stop-color="#AB68FF"/>
<stop offset="1" stop-color="#6DD6FF"/>
</linearGradient>
<linearGradient id="paint9_linear_25_276" x1="0.899414" y1="36.6113" x2="189.904" y2="9.01641" gradientUnits="userSpaceOnUse">
<stop stop-color="#AB68FF"/>
<stop offset="1" stop-color="#6DD6FF"/>
</linearGradient>
<linearGradient id="paint10_linear_25_276" x1="0.899414" y1="36.6113" x2="189.904" y2="9.01641" gradientUnits="userSpaceOnUse">
<stop stop-color="#AB68FF"/>
<stop offset="1" stop-color="#6DD6FF"/>
</linearGradient>
<linearGradient id="paint11_linear_25_276" x1="0.899414" y1="36.6113" x2="189.904" y2="9.01641" gradientUnits="userSpaceOnUse">
<stop stop-color="#AB68FF"/>
<stop offset="1" stop-color="#6DD6FF"/>
</linearGradient>
<linearGradient id="paint12_linear_25_276" x1="0.899414" y1="36.6113" x2="189.904" y2="9.01641" gradientUnits="userSpaceOnUse">
<stop stop-color="#AB68FF"/>
<stop offset="1" stop-color="#6DD6FF"/>
</linearGradient>
<linearGradient id="paint13_linear_25_276" x1="0.899414" y1="36.6113" x2="189.904" y2="9.01641" gradientUnits="userSpaceOnUse">
<stop stop-color="#AB68FF"/>
<stop offset="1" stop-color="#6DD6FF"/>
</linearGradient>
<linearGradient id="paint14_linear_25_276" x1="0.899414" y1="36.6113" x2="189.904" y2="9.01641" gradientUnits="userSpaceOnUse">
<stop stop-color="#AB68FF"/>
<stop offset="1" stop-color="#6DD6FF"/>
</linearGradient>
<linearGradient id="paint15_linear_25_276" x1="0.899414" y1="36.6113" x2="189.904" y2="9.01641" gradientUnits="userSpaceOnUse">
<stop stop-color="#AB68FF"/>
<stop offset="1" stop-color="#6DD6FF"/>
</linearGradient>
<linearGradient id="paint16_linear_25_276" x1="0.899414" y1="36.6113" x2="189.904" y2="9.01641" gradientUnits="userSpaceOnUse">
<stop stop-color="#AB68FF"/>
<stop offset="1" stop-color="#6DD6FF"/>
</linearGradient>
</defs>
</svg>
